<?xml version="1.0" encoding="UTF-8" standalone="no"?>
<!-- Created with Inkscape (http://www.inkscape.org/) -->

<svg
   width="129.42998mm"
   height="51.13723mm"
   viewBox="0 0 129.42998 51.13723"
   version="1.1"
   id="svg5"
   xmlns="http://www.w3.org/2000/svg"
   xmlns:svg="http://www.w3.org/2000/svg">
  <defs
     id="defs2">
    <rect
       x="137.03101"
       y="413.13074"
       width="87.463364"
       height="45.354759"
       id="rect18183" />
    <rect
       x="117.21371"
       y="411.10968"
       width="501.90518"
       height="216.02043"
       id="rect1881" />
    <rect
       x="117.21371"
       y="411.10968"
       width="501.90518"
       height="216.02043"
       id="rect1881-8" />
  </defs>
  <g
     id="layer1"
     transform="translate(-41.568314,-105.7819)">
    <text
       xml:space="preserve"
       transform="matrix(0.26458333,0,0,0.26458333,57.514026,22.686774)"
       id="text1879-0"
       style="font-style:normal;font-variant:normal;font-weight:300;font-stretch:normal;font-size:100px;line-height:1.25;font-family:Roboto;-inkscape-font-specification:'Roboto, Light';font-variant-ligatures:normal;font-variant-caps:normal;font-variant-numeric:normal;font-variant-east-asian:normal;white-space:pre;shape-inside:url(#rect1881-8);fill:#000000;fill-opacity:1;stroke:#000000;stroke-width:1.00157;stroke-miterlimit:4;stroke-dasharray:none;stroke-opacity:1;paint-order:fill markers stroke"><tspan
         x="117.21289"
         y="503.06143"
         id="tspan67892">M++</tspan></text>
    <text
       xml:space="preserve"
       transform="scale(0.26458333)"
       id="text18181"
       style="font-style:normal;font-weight:normal;font-size:40px;line-height:1.25;font-family:sans-serif;white-space:pre;shape-inside:url(#rect18183);fill:#000000;fill-opacity:1;stroke:none" />
    <circle
       id="path20394"
       style="fill:#000000;stroke:#000000;stroke-width:0.264583"
       cx="93.19117"
       cy="146.38336"
       r="0.029524563" />
    <path
       style="fill:#ff0000;fill-opacity:1;fill-rule:nonzero;stroke:#ff0000;stroke-width:0.1;stroke-linecap:butt;stroke-linejoin:miter;stroke-miterlimit:4;stroke-dasharray:none;stroke-opacity:1"
       d="m 107.12595,149.77786 c 2.13423,1.32214 6.47457,4.40436 10.80115,4.42292 1.79143,-0.0227 3.53146,-0.92382 4.74912,-2.37146 0.41687,-0.49392 0.77353,-1.02401 1.10721,-1.56715 0,0 0,0 0,0 0.10637,-0.17217 0.20233,-0.33714 0.30222,-0.48134 0,0 0,-1e-5 0,-1e-5 0.15657,-0.0886 0.10728,-0.15068 -0.1495,-0.009 -0.22313,-0.069 -0.28955,-0.0674 -0.19034,-0.0456 0,0 10e-6,1e-5 10e-6,1e-5 0.0432,0.0377 0.0906,0.0922 0.14841,0.15692 0.18669,0.21236 0.36659,0.43988 0.55743,0.675 0.57332,0.70726 1.17364,1.42834 1.8235,2.11349 0.73566,0.77731 1.54821,1.53255 2.48248,2.14547 0.82828,0.55292 1.81928,0.99566 2.89456,1.00106 1.9507,-0.0124 3.92125,-0.0754 5.89032,-0.24993 0.8009,-0.0703 1.5642,-0.22166 2.30519,-0.2241 0,0 1e-5,0 1e-5,0 0.46549,-0.0756 0.70779,-0.38524 0.7926,-0.61863 0,0 0,0 0,0 0.21371,-0.3538 0.36921,-0.72184 0.51614,-1.0745 0.14819,-0.35249 0.28044,-0.69721 0.43868,-1.01869 0.058,-0.11477 0.10835,-0.21672 0.16869,-0.29271 0.0679,-0.0342 0.048,-0.0655 -0.0446,-0.0201 -0.039,-0.0439 -0.009,0.0345 0.10543,0.10886 0,0 1e-5,0 1e-5,0 0.14142,0.14288 0.27077,0.31502 0.40989,0.49393 0,0 0,0 0,0 0.41892,0.54242 0.83946,1.08935 1.32131,1.59602 1.34904,1.4218 3.18849,2.3545 5.09156,2.3508 2.02554,-0.0214 3.82066,-1.18516 4.97043,-2.64865 0.44541,-0.56538 0.82008,-1.17179 1.14682,-1.78229 l 0,0 0,0 0,0 c 0.1047,-0.1955 0.20224,-0.39021 0.3028,-0.57905 l 0,0 c 0,0 0,0 0,0 0.007,-0.0546 0.0137,-0.10797 0.0248,-0.15696 0.005,-0.0217 0.008,-0.0545 0.0251,-0.0529 0.0184,0.002 0.0275,0.0337 0.0338,0.0599 l 0,0 c -0.0156,0.0347 -0.0335,0.081 -0.047,0.13328 l 0,0 c 0.0917,0.1697 0.17363,0.35171 0.25938,0.53248 l 0,0 c 0.27253,0.57556 0.55378,1.12932 0.88839,1.65263 l 0,0 c 0.40974,0.64211 0.88621,1.22168 1.46952,1.66585 0.6435,0.48944 1.41467,0.75958 2.17183,0.75593 1.75516,-0.0164 3.35851,-0.96657 4.51501,-1.71678 0.71265,-0.46098 1.16394,-0.79152 1.79998,-1.16303 0.50258,-0.29291 0.9416,-0.52758 1.42821,-0.53043 2.13216,0.47638 3.35007,0.74807 3.35007,0.74807 0,0 -1.2121,-0.29233 -3.34354,-0.80554 -0.50567,-0.003 -0.96655,0.22699 -1.47677,0.51456 -0.64596,0.36329 -1.10532,0.68793 -1.82219,1.13526 -1.16601,0.72551 -2.76647,1.64073 -4.45049,1.61952 -0.70916,-0.006 -1.43047,-0.27457 -2.02875,-0.74334 -0.54807,-0.42884 -0.99431,-0.99334 -1.38494,-1.62347 l 0,0 c -0.31732,-0.51301 -0.58384,-1.06001 -0.84561,-1.63495 l 0,0 c -0.0812,-0.17867 -0.16243,-0.36645 -0.25796,-0.55072 l 0,0 c -0.0686,-0.0521 -0.14324,-0.1107 -0.2306,-0.17018 l 0,0 c -0.0301,-0.0215 -0.0628,-0.0493 -0.10446,-0.0475 -0.0383,0.002 -0.0627,0.0373 -0.0886,0.0614 -0.0584,0.0544 -0.11088,0.11079 -0.16319,0.16599 0,0 0,0 0,0 l 0,0 c -0.106,0.19184 -0.20651,0.38492 -0.31137,0.57355 l 0,0 0,1e-5 0,0 c -0.32987,0.59315 -0.70297,1.17738 -1.14029,1.7144 -1.12215,1.37382 -2.83742,2.4552 -4.68981,2.42834 -1.75488,-0.009 -3.45709,-0.92076 -4.70823,-2.26698 -0.45001,-0.48534 -0.85023,-1.02348 -1.26275,-1.57246 0,0 0,0 0,0 -0.13315,-0.17847 -0.27395,-0.36892 -0.44527,-0.54993 0,0 0,-1e-5 0,-1e-5 -0.0593,-0.10558 -0.22312,-0.24314 -0.5126,-0.28705 -0.24674,0.0458 -0.3808,0.15064 -0.40823,0.23773 -0.10204,0.1319 -0.1747,0.26553 -0.23483,0.38696 -0.17758,0.35029 -0.3198,0.70394 -0.46777,1.04363 -0.15371,0.34996 -0.30063,0.68971 -0.48905,0.98745 0,0 -1e-5,0 -1e-5,0 -0.1727,0.18381 -0.24554,0.39397 -0.27076,0.31772 0,0 0,0 0,0 -0.81936,-0.005 -1.604,0.13688 -2.35949,0.19405 -1.94669,0.14609 -3.89866,0.18215 -5.83689,0.16973 -0.85889,0.005 -1.70511,-0.40752 -2.46961,-0.90979 -0.85539,-0.5727 -1.61213,-1.29812 -2.31768,-2.05723 -0.61811,-0.66661 -1.19606,-1.37849 -1.75709,-2.08629 -0.18379,-0.23223 -0.36806,-0.47024 -0.57065,-0.70668 -0.0581,-0.0689 -0.12736,-0.14731 -0.21424,-0.22885 0,0 0,-1e-5 0,-1e-5 0.0358,-0.0363 -0.0961,-0.11304 -0.40504,-0.18016 -0.43372,0.14084 -0.59566,0.3144 -0.53633,0.37278 0,0 0,0 0,0 -0.12555,0.17878 -0.23161,0.35508 -0.33233,0.51512 0,0 -10e-6,1e-5 -10e-6,1e-5 -0.32914,0.52019 -0.66529,1.01112 -1.04572,1.44952 -1.09114,1.25216 -2.60334,2.03434 -4.0764,2.01162 -3.85226,0.0183 -8.09881,-3.03249 -10.2806,-4.34162 -3e-5,-3e-5 -7e-5,-5e-5 -1.1e-4,-7e-5 -2.15097,-1.31137 -3.78833,-0.42293 -5.01652,0.70364 -1.1692,1.07246 -1.96038,2.23842 -2.50883,2.23842 0,0 0.27229,0.10893 0.27229,0.10893 -0.002,-0.003 -0.004,-0.006 -0.006,-0.0101 -0.003,-0.005 -0.006,-0.0104 -0.01,-0.0171 -0.004,-0.007 -0.008,-0.016 -0.0131,-0.0258 -0.005,-0.0109 -0.0109,-0.023 -0.0169,-0.0365 -0.007,-0.015 -0.0136,-0.0314 -0.0209,-0.0494 -0.008,-0.02 -0.0165,-0.0416 -0.0252,-0.0651 -0.0219,-0.0588 -0.0451,-0.12722 -0.0694,-0.20563 -1.192649,-3.83655 -3.205547,-23.83036 -6.0149,-41.44416 -0.250962,-1.57347 -0.506437,-2.67978 -0.758809,-3.31955 -0.547399,-1.38767 -1.470688,-1.21049 -1.964823,0.0538 -0.58858,1.50598 -1.119969,5.0723 -1.644124,9.56434 -0.94348,8.08567 -1.858138,19.27482 -2.840781,26.92465 -0.524076,4.07991 -1.077629,7.11213 -1.592026,8.06215 -0.0227,0.0419 -0.04331,0.076 -0.06223,0.10408 -0.0075,0.0111 -0.01443,0.0209 -0.02092,0.0296 -0.0058,0.008 -0.01119,0.0146 -0.01605,0.0205 -0.0044,0.005 -0.0082,0.01 -0.01162,0.0134 -0.003,0.003 -0.0056,0.006 -0.0076,0.008 -0.01845,0.0181 0.117295,-0.0286 0.117295,-0.0286 -2.171914,0 -5.983723,1.23045 -11.345046,1.23045 -5.368859,0 -7.200709,-1.97265 -8.138689,-1.97265 0,0 -8.4e-5,0 -8.4e-5,0 -0.360975,0.0675 -0.555578,0.1875 -0.569791,0.26699 l 0,0 c -0.150705,0.13595 -0.273008,0.2684 -0.39575,0.40046 l 0,0 c -0.319857,0.34056 -0.704571,0.74786 -1.107547,1.09209 l 0,0 -10e-7,0 0,0 c -0.966174,0.82558 -2.369798,1.56382 -3.968494,1.58751 l 0,0 -2e-6,0 0,0 c -3.850803,0.0686 -8.190151,0.55612 -11.703046,0.63916 l 0,0 c -1.754123,0.0425 -3.392626,-0.23549 -4.507805,-0.46916 l 0,0 c -0.638801,-0.13392 -1.147589,-0.26509 -1.505736,-0.36385 l 0,0 c -0.187157,-0.0516 -0.326964,-0.0927 -0.427991,-0.12324 l 0,0 c 0,0 -1e-6,0 -1e-6,0 -0.05102,-0.0154 -0.08825,-0.027 -0.115648,-0.0356 l 0,0 c 0,0 -10e-7,0 -10e-7,0 -0.02617,-0.007 -0.04093,-0.0129 -0.04359,-0.0139 0,0 0,0 0,0 -2.62e-4,-9e-5 -2.25e-4,-8e-5 -2.25e-4,-8e-5 0,0 -3.7e-5,-1e-5 2.25e-4,8e-5 0,0 0,0 0,0 0.0027,9.4e-4 0.01756,0.006 0.0428,0.0161 0,0 0,0 0,0 l 0,0 c 0.0269,0.01 0.06353,0.0235 0.113717,0.0415 0,0 10e-7,0 10e-7,0 l 0,0 c 0.0993,0.0357 0.237083,0.084 0.421539,0.14523 l 0,0 c 0.352859,0.11703 0.855948,0.27441 1.489635,0.44073 l 0,0 c 1.105654,0.29032 2.74033,0.65188 4.533073,0.69433 l 0,0 c 3.532898,0.083 7.906434,-0.21066 11.703046,-0.1421 l 0,0 1e-6,0 10e-7,0 c 1.849397,0.0237 3.466168,-0.7484 4.590661,-1.67415 l 0,0 10e-7,0 0,0 c 0.464746,-0.38264 0.87847,-0.80454 1.20837,-1.15033 l 0,0 c 0.132337,-0.13738 0.232642,-0.24703 0.337385,-0.33853 l 0,0 c 0.12933,-0.0483 0.08427,-0.0808 -0.0947,-0.0134 0,0 -5.5e-5,0 -5.5e-5,0 0.471443,0 2.708938,1.97265 8.138689,1.97265 5.437286,0 9.370987,-1.23045 11.345046,-1.23045 0.50757,0 0.808586,-0.47738 1.007265,-0.93263 1.66913,-3.8246 3.006832,-22.97445 4.419976,-35.08516 0.418504,-3.5866 0.83867,-6.52989 1.270473,-8.27986 0.128557,-0.521 0.251511,-0.9102 0.369853,-1.17596 0.04628,-0.10392 0.08497,-0.17411 0.119091,-0.2245 0.0047,-0.007 0.0091,-0.0131 0.01316,-0.0187 0.0037,-0.005 0.007,-0.009 0.01007,-0.0132 0.0027,-0.003 0.0052,-0.006 0.0073,-0.009 0.01925,-0.0223 -0.06403,0.0254 -0.06403,0.0254 0,0 -0.231832,-0.0362 -0.231832,-0.0362 0,0 -9.81e-4,-8.9e-4 -2.9e-4,-2.2e-4 8.02e-4,7.9e-4 0.0024,0.002 0.0049,0.005 0.0027,0.003 0.0063,0.007 0.01062,0.0128 0.05868,0.0751 0.139748,0.22994 0.239966,0.52052 0.205189,0.59494 0.414065,1.53447 0.637694,2.93656 2.809353,17.61381 4.854845,37.74696 6.047499,41.58352 0.138702,0.44618 0.353171,1.00381 0.843949,1.00381 1.11904,0 2.08257,-1.49046 3.18479,-2.50149 1.04215,-0.95592 2.19894,-1.57505 3.82001,-0.58674 4e-5,2e-5 8e-5,4e-5 1.1e-4,7e-5 z"
       id="path67883" />
    <text
       xml:space="preserve"
       style="font-style:normal;font-weight:normal;font-size:10.5833px;line-height:1.25;font-family:sans-serif;fill:#000000;fill-opacity:1;stroke:none;stroke-width:0.264583"
       x="94.962311"
       y="152.07294"
       id="text58488"><tspan
         id="tspan58486"
         style="stroke-width:0.264583"
         x="94.962311"
         y="152.07294" /></text>
  </g>
  <g
     id="layer3"
     transform="translate(-41.568314,-105.7819)">
    <text
       xml:space="preserve"
       transform="matrix(0.26458333,0,0,0.26458333,20.88343,22.686774)"
       id="text1879"
       style="font-style:normal;font-variant:normal;font-weight:300;font-stretch:normal;font-size:100px;line-height:1.25;font-family:Roboto;-inkscape-font-specification:'Roboto, Light';font-variant-ligatures:normal;font-variant-caps:normal;font-variant-numeric:normal;font-variant-east-asian:normal;white-space:pre;shape-inside:url(#rect1881);fill:#000000;fill-opacity:1;stroke:#000000;stroke-width:1.00157;stroke-miterlimit:4;stroke-dasharray:none;stroke-opacity:1;paint-order:fill markers stroke"><tspan
         x="117.21289"
         y="503.06143"
         id="tspan67894">SiP</tspan></text>
  </g>
</svg>
